<svg xmlns="http://www.w3.org/2000/svg" width="56" height="56" fill="none"><path fill="#fff" d="m32.042 50.796 1.264-2.137-3.012-1.783-1.265 2.137 3.013 1.783Zm-9.349-2.137 1.265 2.137 3.012-1.783-1.265-2.137-3.011 1.783Zm6.336.354c-.45.76-1.609.76-2.059 0l-3.011 1.783c1.805 3.05 6.277 3.05 8.083 0l-3.013-1.783ZM24.5 6.417h7v-3.5h-7v3.5ZM49.583 24.5v2.333h3.5V24.5h-3.5ZM6.417 26.833V24.5h-3.5v2.333h3.5Zm-3.5 0c0 2.694-.001 4.803.115 6.503.117 1.716.359 3.144.906 4.465l3.234-1.34c-.341-.823-.543-1.825-.648-3.363-.106-1.554-.107-3.523-.107-6.265h-3.5Zm15.289 15.73c-2.93-.05-4.464-.236-5.668-.735L11.2 45.063c1.878.778 4.018.95 6.947 1.001l.06-3.5ZM3.938 37.802a13.417 13.417 0 0 0 7.261 7.261l1.34-3.233a9.917 9.917 0 0 1-5.367-5.367L3.938 37.8Zm45.645-10.968c0 2.742 0 4.711-.106 6.265-.105 1.538-.308 2.54-.648 3.364l3.233 1.339c.547-1.32.79-2.749.906-4.465.116-1.7.115-3.809.115-6.503h-3.5Zm-11.729 19.23c2.93-.05 5.069-.223 6.947-1.001l-1.34-3.233c-1.202.498-2.737.684-5.667.735l.06 3.499Zm10.974-9.601a9.917 9.917 0 0 1-5.366 5.366l1.339 3.234a13.417 13.417 0 0 0 7.261-7.261l-3.233-1.34ZM31.5 6.417c3.853 0 6.62.001 8.778.207 2.132.202 3.489.591 4.57 1.254l1.829-2.984c-1.724-1.057-3.68-1.528-6.068-1.755-2.362-.224-5.324-.222-9.109-.222v3.5ZM53.083 24.5c0-3.785.002-6.747-.222-9.11-.227-2.387-.698-4.343-1.755-6.067l-2.984 1.829c.663 1.081 1.052 2.438 1.254 4.57.206 2.158.207 4.925.207 8.778h3.5ZM44.848 7.878a9.916 9.916 0 0 1 3.274 3.274l2.984-1.829a13.416 13.416 0 0 0-4.429-4.43l-1.829 2.985ZM24.5 2.917c-3.785 0-6.747-.002-9.11.222-2.387.227-4.343.698-6.067 1.755l1.829 2.984c1.082-.663 2.438-1.052 4.57-1.254 2.158-.206 4.925-.207 8.778-.207v-3.5ZM6.417 24.5c0-3.853.002-6.62.207-8.778.202-2.132.591-3.489 1.254-4.57L4.894 9.323c-1.057 1.724-1.527 3.68-1.755 6.068-.224 2.362-.222 5.324-.222 9.109h3.5ZM9.323 4.894a13.417 13.417 0 0 0-4.43 4.43l2.985 1.828a9.917 9.917 0 0 1 3.274-3.274L9.323 4.894Zm16.382 41.982c-.473-.8-.889-1.506-1.293-2.061-.427-.585-.915-1.11-1.592-1.505l-1.76 3.026c.11.064.261.181.523.54.283.389.603.926 1.11 1.783l3.012-1.783Zm-7.56-.813c1.025.018 1.674.03 2.169.085.462.052.641.127.746.188l1.76-3.026c-.683-.397-1.394-.56-2.121-.64-.694-.077-1.534-.09-2.493-.106l-.06 3.499Zm15.162 2.596c.507-.857.827-1.394 1.11-1.783.261-.359.412-.476.523-.54l-1.76-3.026c-.677.394-1.166.92-1.591 1.505-.405.555-.82 1.26-1.295 2.061l3.012 1.783Zm4.487-6.095c-.96.016-1.799.029-2.493.106-.727.08-1.438.243-2.12.64l1.759 3.026c.105-.061.284-.136.746-.188.495-.054 1.144-.067 2.168-.085l-.06-3.5Z"/><path stroke="#fff" stroke-linecap="round" stroke-linejoin="round" stroke-width="4.667" d="M18.667 25.667h.02m9.292 0H28m9.312 0h.021"/></svg>